<?xml version="1.0" encoding="UTF-8" standalone="no"?>
<!DOCTYPE svg PUBLIC "-//W3C//DTD SVG 1.1//EN" "http://www.w3.org/Graphics/SVG/1.1/DTD/svg11.dtd">
<svg version="1.1" xmlns="http://www.w3.org/2000/svg" xmlns:xlink="http://www.w3.org/1999/xlink" preserveAspectRatio="xMidYMid meet" viewBox="0 0 640 640" width="640" height="640"><defs><path d="M629.48 268.84C600.88 243.81 372.06 43.59 343.46 18.56C330.47 7.21 309.66 7.45 296.95 19.1C268.25 45.41 38.65 255.87 9.95 282.18C-2.76 293.83 -3.38 313.36 8.57 325.79C9.29 326.54 15.05 332.53 15.77 333.28C27.71 345.7 47 347.18 58.84 336.58C60.27 335.3 67.42 328.9 80.29 317.37C80.29 486.09 80.29 579.83 80.29 598.58C80.29 615.83 94.27 629.8 111.51 629.8C122.69 629.8 212.19 629.8 223.38 629.8C240.62 629.8 254.6 615.83 254.6 598.58C254.6 585.46 254.6 519.89 254.6 401.85L397.29 401.85C397.29 519.89 397.29 585.46 397.29 598.58C397.05 615.82 409.38 629.79 426.62 629.79C438.48 629.79 533.32 629.79 545.18 629.79C562.42 629.79 576.4 615.82 576.4 598.57C576.4 570.84 576.4 349.05 576.4 321.33C576.4 321.33 582.32 326.52 589.63 332.94C596.93 339.36 612.25 334.21 623.85 321.44C624.39 320.85 627.1 317.87 631.98 312.51C638.97 290.96 638.14 276.41 629.48 268.84Z" id="a2A0UAgxO"></path></defs><g><g><g><use xlink:href="#a2A0UAgxO" opacity="1" fill="#ff0102" fill-opacity="1"></use><g><use xlink:href="#a2A0UAgxO" opacity="1" fill-opacity="0" stroke="#000000" stroke-width="1" stroke-opacity="0"></use></g></g></g></g></svg>